<svg width="82" height="25" viewBox="0 0 82 25" fill="none" xmlns="http://www.w3.org/2000/svg">
<path d="M78.963 0H3.03704C1.35973 0 0 1.39911 0 3.125V21.875C0 23.6009 1.35973 25 3.03704 25H78.963C80.6403 25 82 23.6009 82 21.875V3.125C82 1.39911 80.6403 0 78.963 0Z" fill="black"/>
<path d="M78.963 0.5C79.6396 0.5 80.2884 0.776562 80.7669 1.26884C81.2453 1.76113 81.5141 2.42881 81.5141 3.125V21.875C81.5141 22.5712 81.2453 23.2389 80.7669 23.7312C80.2884 24.2234 79.6396 24.5 78.963 24.5H3.03704C2.36044 24.5 1.71156 24.2234 1.23313 23.7312C0.754703 23.2389 0.485926 22.5712 0.485926 21.875V3.125C0.485926 2.42881 0.754703 1.76113 1.23313 1.26884C1.71156 0.776562 2.36044 0.5 3.03704 0.5H78.963ZM78.963 0H3.03704C2.23156 0 1.45908 0.32924 0.889528 0.915291C0.319973 1.50134 0 2.2962 0 3.125V21.875C0 22.7038 0.319973 23.4987 0.889528 24.0847C1.45908 24.6708 2.23156 25 3.03704 25H78.963C79.7684 25 80.5409 24.6708 81.1105 24.0847C81.68 23.4987 82 22.7038 82 21.875V3.125C82 2.2962 81.68 1.50134 81.1105 0.915291C80.5409 0.32924 79.7684 0 78.963 0Z" fill="#A6A6A6"/>
<path d="M19.5056 12.0707C19.4888 10.1514 21.0329 9.2176 21.1035 9.17413C20.229 7.86223 18.8736 7.68299 18.3973 7.6687C17.2589 7.54543 16.1547 8.3696 15.5748 8.3696C14.9833 8.3696 14.0903 7.68061 13.1279 7.70085C11.8894 7.7205 10.7307 8.45833 10.0953 9.60408C8.78383 11.9402 9.7619 15.3733 11.0183 17.2617C11.6469 18.1865 12.3813 19.2191 13.3426 19.1828C14.283 19.1429 14.6343 18.5658 15.7692 18.5658C16.8937 18.5658 17.2236 19.1828 18.204 19.1595C19.2133 19.1429 19.8488 18.2306 20.4553 17.2974C21.1816 16.2374 21.4733 15.1935 21.4849 15.1399C21.4612 15.1316 19.5247 14.3711 19.5056 12.0707Z" fill="white"/>
<path d="M17.6536 6.42647C18.1594 5.77558 18.5055 4.89007 18.4094 3.99146C17.6773 4.0248 16.7618 4.51252 16.2345 5.14911C15.7681 5.71008 15.3514 6.62954 15.459 7.49421C16.2814 7.55733 17.1258 7.06723 17.6536 6.42647Z" fill="white"/>
<path d="M33.1157 19.05H31.8014L31.0814 16.7221H28.5789L27.8931 19.05H26.6135L29.0929 11.125H30.6242L33.1157 19.05ZM30.8644 15.7455L30.2133 13.6761C30.1444 13.4647 30.0154 12.9669 29.825 12.1832H29.8018C29.726 12.5203 29.6039 13.0181 29.436 13.6761L28.7965 15.7455H30.8644Z" fill="white"/>
<path d="M39.4915 16.1225C39.4915 17.0944 39.2363 17.8626 38.7258 18.4265C38.2686 18.9285 37.7009 19.1793 37.0232 19.1793C36.2917 19.1793 35.7662 18.9089 35.4461 18.3682H35.423V21.3785H34.1891V15.2168C34.1891 14.6058 34.1735 13.9787 34.1434 13.3356H35.2285L35.2974 14.2413H35.3205C35.732 13.5589 36.3565 13.2183 37.1945 13.2183C37.8496 13.2183 38.3965 13.4845 38.8341 14.0174C39.2727 14.551 39.4915 15.2525 39.4915 16.1225ZM38.2345 16.169C38.2345 15.6128 38.1129 15.1542 37.8687 14.7934C37.6019 14.417 37.2437 14.2288 36.7946 14.2288C36.4902 14.2288 36.2135 14.3336 35.9664 14.5403C35.7187 14.7487 35.5567 15.0209 35.4808 15.3579C35.4426 15.5151 35.4235 15.6437 35.4235 15.745V16.6978C35.4235 17.1135 35.5474 17.4642 35.7951 17.7506C36.0428 18.0371 36.3646 18.18 36.7604 18.18C37.2252 18.18 37.5869 17.9954 37.8456 17.6274C38.1048 17.2588 38.2345 16.7728 38.2345 16.169Z" fill="white"/>
<path d="M45.8792 16.1225C45.8792 17.0944 45.624 17.8626 45.113 18.4265C44.6564 18.9285 44.0886 19.1793 43.4109 19.1793C42.6794 19.1793 42.1539 18.9089 41.8344 18.3682H41.8113V21.3785H40.5774V15.2168C40.5774 14.6058 40.5618 13.9787 40.5317 13.3356H41.6168L41.6857 14.2413H41.7088C42.1197 13.5589 42.7442 13.2183 43.5828 13.2183C44.2374 13.2183 44.7843 13.4845 45.223 14.0174C45.6599 14.551 45.8792 15.2525 45.8792 16.1225ZM44.6222 16.169C44.6222 15.6128 44.5001 15.1542 44.2559 14.7934C43.9891 14.417 43.632 14.2288 43.1823 14.2288C42.8773 14.2288 42.6013 14.3336 42.3536 14.5403C42.1059 14.7487 41.9444 15.0209 41.8686 15.3579C41.831 15.5151 41.8113 15.6437 41.8113 15.745V16.6978C41.8113 17.1135 41.9351 17.4642 42.1817 17.7506C42.4294 18.0365 42.7512 18.18 43.1482 18.18C43.6129 18.18 43.9746 17.9954 44.2333 17.6274C44.4926 17.2588 44.6222 16.7728 44.6222 16.169Z" fill="white"/>
<path d="M53.021 16.8276C53.021 17.5017 52.7935 18.0501 52.3369 18.4736C51.8351 18.9363 51.1366 19.1673 50.2389 19.1673C49.4102 19.1673 48.7458 19.003 48.2429 18.6736L48.5288 17.6154C49.0705 17.9525 49.6648 18.1216 50.3124 18.1216C50.7772 18.1216 51.1389 18.0132 51.3987 17.7977C51.6574 17.5821 51.7865 17.2927 51.7865 16.9318C51.7865 16.6102 51.68 16.3393 51.4664 16.1195C51.2541 15.8998 50.8993 15.6955 50.4039 15.5068C49.0554 14.9893 48.3818 14.2312 48.3818 13.2343C48.3818 12.5828 48.6179 12.0487 49.0907 11.633C49.5618 11.2167 50.1903 11.0089 50.9763 11.0089C51.6771 11.0089 52.2593 11.1346 52.7241 11.3853L52.4156 12.4203C51.9815 12.1773 51.4908 12.0558 50.9415 12.0558C50.5075 12.0558 50.1683 12.166 49.9253 12.3851C49.7198 12.581 49.6168 12.8198 49.6168 13.1027C49.6168 13.4159 49.7343 13.675 49.9704 13.8786C50.1759 14.0668 50.5491 14.2705 51.0908 14.4902C51.7535 14.7648 52.2402 15.0857 52.5533 15.4538C52.8653 15.8206 53.021 16.2797 53.021 16.8276Z" fill="white"/>
<path d="M57.1004 14.2884H55.7404V17.0628C55.7404 17.7685 55.98 18.1211 56.4603 18.1211C56.6808 18.1211 56.8637 18.1014 57.0084 18.0621L57.0425 19.0262C56.7995 19.1197 56.4794 19.1668 56.083 19.1668C55.5957 19.1668 55.2149 19.0137 54.94 18.7082C54.6662 18.4021 54.5285 17.8888 54.5285 17.1677V14.2872H53.7183V13.3344H54.5285V12.2881L55.7404 11.9117V13.3344H57.1004V14.2884Z" fill="white"/>
<path d="M63.2368 16.1458C63.2368 17.0241 62.9926 17.7453 62.5053 18.3092C61.9943 18.8899 61.316 19.1793 60.4704 19.1793C59.6556 19.1793 59.0068 18.9012 58.523 18.345C58.0392 17.7888 57.7972 17.0867 57.7972 16.2405C57.7972 15.3549 58.0461 14.6296 58.5456 14.0657C59.0438 13.5011 59.7163 13.2189 60.5619 13.2189C61.3768 13.2189 62.0325 13.497 62.5273 14.0538C63.0007 14.5939 63.2368 15.2912 63.2368 16.1458ZM61.9566 16.1869C61.9566 15.6598 61.8473 15.2079 61.6256 14.8309C61.3669 14.3747 60.9971 14.1473 60.5179 14.1473C60.0219 14.1473 59.6452 14.3753 59.3865 14.8309C59.1648 15.2085 59.0554 15.6676 59.0554 16.2107C59.0554 16.7377 59.1648 17.1897 59.3865 17.566C59.6533 18.0222 60.026 18.2497 60.5069 18.2497C60.978 18.2497 61.3478 18.0174 61.6146 17.5541C61.8421 17.17 61.9566 16.7133 61.9566 16.1869Z" fill="white"/>
<path d="M67.2475 14.4521C67.1253 14.4289 66.9951 14.417 66.8585 14.417C66.4245 14.417 66.0888 14.5855 65.8527 14.9232C65.6472 15.2209 65.5442 15.5973 65.5442 16.0517V19.05H64.3109L64.3225 15.1352C64.3225 14.4766 64.3069 13.8769 64.2762 13.3362H65.3509L65.3961 14.4295H65.4302C65.5604 14.0538 65.7659 13.7512 66.0471 13.5244C66.322 13.3201 66.6189 13.2183 66.939 13.2183C67.053 13.2183 67.156 13.2266 67.2475 13.2415V14.4521Z" fill="white"/>
<path d="M72.7658 15.9224C72.7658 16.1499 72.7513 16.3417 72.7206 16.4983H69.019C69.0335 17.0628 69.2123 17.4946 69.5561 17.7923C69.868 18.0585 70.2714 18.1919 70.7668 18.1919C71.3149 18.1919 71.8149 18.102 72.2646 17.9215L72.4579 18.8029C71.9324 19.0387 71.312 19.156 70.5961 19.156C69.7349 19.156 69.0589 18.8952 68.567 18.3741C68.0762 17.853 67.8303 17.1533 67.8303 16.2756C67.8303 15.4139 68.0589 14.6963 68.5167 14.124C68.9958 13.513 69.6435 13.2075 70.4583 13.2075C71.2587 13.2075 71.8647 13.513 72.2762 14.124C72.602 14.6093 72.7658 15.2096 72.7658 15.9224ZM71.5892 15.5931C71.5973 15.2167 71.5168 14.8916 71.3496 14.6171C71.136 14.2639 70.8079 14.0877 70.3663 14.0877C69.9629 14.0877 69.6348 14.2598 69.3842 14.6052C69.1787 14.8797 69.0566 15.209 69.019 15.5925H71.5892V15.5931Z" fill="white"/>
<path d="M31.037 9.18834H30.3952V8.20323H27.8306V9.18834H27.1781L27.1567 7.64739H27.4696C27.6247 7.4933 27.7486 7.26949 27.8413 6.97598C27.934 6.68063 27.9938 6.34676 28.0205 5.97437L28.1221 4.19678H30.5771V7.64739H31.0718L31.037 9.18834ZM28.2345 7.64739H29.9032V4.75812H28.7666L28.7024 5.88631C28.6543 6.64028 28.4983 7.2273 28.2345 7.64739Z" fill="white"/>
<path d="M31.6692 6.68705C31.6692 6.39537 31.7254 6.13305 31.8377 5.90007C31.95 5.66526 32.1078 5.48548 32.311 5.36074C32.5143 5.23416 32.7478 5.17087 33.0117 5.17087C33.4021 5.17087 33.7186 5.3002 33.961 5.55886C34.2053 5.81752 34.3372 6.16056 34.3568 6.58799L34.3595 6.74484C34.3595 7.03835 34.3042 7.30068 34.1937 7.53182C34.085 7.76296 33.9281 7.94182 33.723 8.0684C33.5198 8.19498 33.2845 8.25827 33.017 8.25827C32.6088 8.25827 32.2816 8.11885 32.0356 7.84001C31.7914 7.55934 31.6692 7.18603 31.6692 6.72007V6.68705ZM32.3191 6.74484C32.3191 7.05119 32.3806 7.29151 32.5036 7.46578C32.6266 7.63822 32.7978 7.72444 33.017 7.72444C33.2363 7.72444 33.4066 7.63639 33.5278 7.46028C33.6508 7.28417 33.7123 7.02643 33.7123 6.68705C33.7123 6.3862 33.6491 6.14772 33.5225 5.97162C33.3977 5.79551 33.2274 5.70745 33.0117 5.70745C32.7995 5.70745 32.6311 5.79459 32.5063 5.96886C32.3815 6.1413 32.3191 6.39996 32.3191 6.74484Z" fill="white"/>
<path d="M36.3716 7.72444C36.5338 7.72444 36.6684 7.67583 36.7754 7.5786C36.8824 7.48137 36.9394 7.36122 36.9466 7.21813H37.559C37.5518 7.40341 37.4957 7.57677 37.3905 7.7382C37.2853 7.8978 37.1427 8.02437 36.9626 8.11793C36.7825 8.21149 36.5882 8.25827 36.3796 8.25827C35.9749 8.25827 35.654 8.12343 35.4169 7.85377C35.1798 7.5841 35.0612 7.21171 35.0612 6.73658V6.66779C35.0612 6.21468 35.1789 5.85238 35.4142 5.58088C35.6496 5.30754 35.9705 5.17087 36.3769 5.17087C36.721 5.17087 37.0009 5.27452 37.2167 5.48181C37.4342 5.68727 37.5483 5.95786 37.559 6.29356H36.9466C36.9394 6.12296 36.8824 5.98262 36.7754 5.87255C36.6702 5.76249 36.5356 5.70745 36.3716 5.70745C36.1612 5.70745 35.999 5.78633 35.8849 5.9441C35.7708 6.10003 35.7128 6.33759 35.7111 6.65679V6.7641C35.7111 7.08697 35.7672 7.3282 35.8795 7.48779C35.9936 7.64556 36.1577 7.72444 36.3716 7.72444Z" fill="white"/>
<path d="M40.6006 5.75698H39.662V8.20323H39.0121V5.75698H38.0842V5.22591H40.6006V5.75698Z" fill="white"/>
<path d="M42.3533 7.24565L42.9416 5.22591H43.6343L42.4844 8.65451C42.3079 9.15532 42.0083 9.40572 41.5858 9.40572C41.4913 9.40572 41.387 9.38921 41.2729 9.35619V8.83887L41.3959 8.84713C41.56 8.84713 41.683 8.81594 41.765 8.75357C41.8488 8.69303 41.9147 8.5903 41.9629 8.44538L42.0565 8.18947L41.0403 5.22591H41.7409L42.3533 7.24565Z" fill="white"/>
<path d="M46.7375 8.20323H46.0876V5.76524H44.9591V8.20323H44.3092V5.22591H46.7375V8.20323Z" fill="white"/>
<path d="M50.1535 8.20323H49.5037V7.00075H48.3778V8.20323H47.728V5.22591H48.3778V6.46692H49.5037V5.22591H50.1535V8.20323Z" fill="white"/>
<path d="M50.9996 6.68705C50.9996 6.39537 51.0558 6.13305 51.1681 5.90007C51.2804 5.66526 51.4382 5.48548 51.6415 5.36074C51.8447 5.23416 52.0782 5.17087 52.3421 5.17087C52.7325 5.17087 53.049 5.3002 53.2915 5.55886C53.5357 5.81752 53.6676 6.16056 53.6872 6.58799L53.6899 6.74484C53.6899 7.03835 53.6346 7.30068 53.5241 7.53182C53.4154 7.76296 53.2585 7.94182 53.0534 8.0684C52.8502 8.19498 52.6149 8.25827 52.3475 8.25827C51.9392 8.25827 51.612 8.11885 51.366 7.84001C51.1218 7.55934 50.9996 7.18603 50.9996 6.72007V6.68705ZM51.6495 6.74484C51.6495 7.05119 51.711 7.29151 51.834 7.46578C51.957 7.63822 52.1282 7.72444 52.3475 7.72444C52.5667 7.72444 52.737 7.63639 52.8582 7.46028C52.9812 7.28417 53.0428 7.02643 53.0428 6.68705C53.0428 6.3862 52.9795 6.14772 52.8529 5.97162C52.7281 5.79551 52.5578 5.70745 52.3421 5.70745C52.1299 5.70745 51.9615 5.79459 51.8367 5.96886C51.7119 6.1413 51.6495 6.39996 51.6495 6.74484Z" fill="white"/>
<path d="M56.2005 8.20323V5.22591H57.3745C57.7703 5.22591 58.0716 5.29745 58.2784 5.44054C58.4852 5.58179 58.5886 5.78542 58.5886 6.05141C58.5886 6.189 58.5467 6.31282 58.4629 6.42289C58.3809 6.53112 58.2587 6.61459 58.0965 6.6733C58.2855 6.71365 58.4352 6.79529 58.5458 6.9182C58.6563 7.0411 58.7116 7.18603 58.7116 7.35296C58.7116 7.62997 58.6117 7.84093 58.4121 7.98585C58.2142 8.13077 57.9289 8.20323 57.5563 8.20323H56.2005ZM56.8503 6.93471V7.67491H57.5617C57.8951 7.67491 58.0617 7.552 58.0617 7.30618C58.0617 7.05853 57.8924 6.93471 57.5536 6.93471H56.8503ZM56.8503 6.45591H57.3852C57.7542 6.45591 57.9387 6.34401 57.9387 6.12021C57.9387 5.8854 57.764 5.76432 57.4146 5.75698H56.8503V6.45591Z" fill="white"/>
</svg>
