<svg width="82" height="25" viewBox="0 0 82 25" fill="none" xmlns="http://www.w3.org/2000/svg">
<path d="M78.963 0H3.03704C1.35973 0 0 1.39911 0 3.125V21.875C0 23.6009 1.35973 25 3.03704 25H78.963C80.6403 25 82 23.6009 82 21.875V3.125C82 1.39911 80.6403 0 78.963 0Z" fill="black"/>
<path d="M78.963 0.5C79.6396 0.5 80.2884 0.776562 80.7669 1.26884C81.2453 1.76113 81.5141 2.42881 81.5141 3.125V21.875C81.5141 22.5712 81.2453 23.2389 80.7669 23.7312C80.2884 24.2234 79.6396 24.5 78.963 24.5H3.03704C2.36044 24.5 1.71156 24.2234 1.23313 23.7312C0.754703 23.2389 0.485926 22.5712 0.485926 21.875V3.125C0.485926 2.42881 0.754703 1.76113 1.23313 1.26884C1.71156 0.776562 2.36044 0.5 3.03704 0.5H78.963ZM78.963 0H3.03704C2.23156 0 1.45908 0.32924 0.889528 0.915291C0.319973 1.50134 0 2.2962 0 3.125V21.875C0 22.7038 0.319973 23.4987 0.889528 24.0847C1.45908 24.6708 2.23156 25 3.03704 25H78.963C79.7684 25 80.5409 24.6708 81.1105 24.0847C81.68 23.4987 82 22.7038 82 21.875V3.125C82 2.2962 81.68 1.50134 81.1105 0.915291C80.5409 0.32924 79.7684 0 78.963 0Z" fill="#A6A6A6"/>
<path d="M41.3888 13.5938C40.8788 13.5963 40.3809 13.7542 39.9579 14.0475C39.535 14.3409 39.206 14.7566 39.0125 15.2422C38.819 15.7278 38.7696 16.2615 38.8706 16.7759C38.9715 17.2903 39.2184 17.7625 39.5799 18.1327C39.9414 18.5029 40.4014 18.7547 40.9018 18.8562C41.4022 18.9576 41.9206 18.9043 42.3916 18.7029C42.8626 18.5015 43.2651 18.161 43.5482 17.7245C43.8313 17.288 43.9824 16.7749 43.9824 16.2501C43.9874 15.8988 43.9236 15.5501 43.7949 15.2247C43.6661 14.8993 43.4751 14.6039 43.2331 14.356C42.9911 14.1082 42.7031 13.913 42.3862 13.782C42.0694 13.6511 41.7302 13.5871 41.3888 13.5938ZM41.3888 17.8626C41.0751 17.8851 40.7621 17.8101 40.4904 17.6472C40.2188 17.4843 40.001 17.241 39.8654 16.9491C39.7299 16.6572 39.6828 16.33 39.7304 16.0102C39.7779 15.6903 39.9179 15.3926 40.1321 15.1557C40.3462 14.9188 40.6247 14.7537 40.9313 14.6818C41.2379 14.6099 41.5584 14.6346 41.8512 14.7526C42.1439 14.8707 42.3954 15.0766 42.573 15.3436C42.7505 15.6107 42.8458 15.9265 42.8466 16.2501C42.8564 16.4551 42.8262 16.66 42.7577 16.8528C42.6893 17.0456 42.5841 17.2224 42.4482 17.3727C42.3124 17.523 42.1486 17.6437 41.9667 17.7279C41.7847 17.812 41.5882 17.8578 41.3888 17.8626ZM35.7339 13.5938C35.2235 13.5951 34.725 13.7519 34.3013 14.0445C33.8776 14.3371 33.5477 14.7524 33.3532 15.2379C33.1588 15.7234 33.1085 16.2573 33.2088 16.7721C33.3091 17.287 33.5554 17.7597 33.9167 18.1305C34.278 18.5014 34.7379 18.7537 35.2385 18.8557C35.7391 18.9577 36.2579 18.9048 36.7292 18.7035C37.2006 18.5023 37.6034 18.1618 37.8868 17.7252C38.1702 17.2885 38.3214 16.7752 38.3214 16.2501C38.3264 15.8988 38.2626 15.5501 38.1338 15.2247C38.0051 14.8993 37.814 14.6039 37.572 14.356C37.33 14.1082 37.042 13.913 36.7252 13.782C36.4084 13.6511 36.0692 13.5871 35.7278 13.5938H35.7339ZM35.7339 17.8626C35.42 17.8864 35.1065 17.8125 34.8341 17.6504C34.5616 17.4883 34.3429 17.2456 34.2064 16.9539C34.0699 16.6621 34.022 16.3349 34.0688 16.0147C34.1156 15.6945 34.255 15.3962 34.4688 15.1586C34.6827 14.9211 34.9611 14.7553 35.2678 14.6828C35.5745 14.6104 35.8953 14.6346 36.1884 14.7524C36.4815 14.8701 36.7334 15.076 36.9113 15.3431C37.0891 15.6102 37.1847 15.9263 37.1856 16.2501C37.1953 16.4551 37.1651 16.66 37.0967 16.8528C37.0283 17.0456 36.923 17.2224 36.7872 17.3727C36.6513 17.523 36.4876 17.6437 36.3056 17.7279C36.1237 17.812 35.9272 17.8578 35.7278 17.8626H35.7339ZM28.9977 14.4126V15.5376H31.6217C31.5806 16.0675 31.3665 16.5674 31.0143 16.9563C30.7518 17.2315 30.4362 17.447 30.0878 17.5891C29.7395 17.7312 29.3661 17.7967 28.9916 17.7813C28.2184 17.7813 27.4768 17.4653 26.93 16.9026C26.3832 16.34 26.0761 15.577 26.0761 14.7813C26.0761 13.9857 26.3832 13.2226 26.93 12.66C27.4768 12.0974 28.2184 11.7813 28.9916 11.7813C29.7313 11.7689 30.4456 12.0589 30.9778 12.5876L31.7493 11.7938C31.39 11.4195 30.9613 11.1231 30.4887 10.9224C30.016 10.7216 29.509 10.6205 28.9977 10.6251C28.4577 10.6034 27.919 10.6942 27.414 10.8919C26.9089 11.0896 26.4478 11.3902 26.0583 11.7757C25.6688 12.1612 25.359 12.6236 25.1473 13.1352C24.9357 13.6468 24.8266 14.1971 24.8266 14.7532C24.8266 15.3092 24.9357 15.8596 25.1473 16.3712C25.359 16.8828 25.6688 17.3452 26.0583 17.7307C26.4478 18.1162 26.9089 18.4168 27.414 18.6145C27.919 18.8122 28.4577 18.9029 28.9977 18.8813C29.5176 18.9055 30.0365 18.8148 30.5195 18.6154C31.0025 18.4159 31.4384 18.1124 31.7978 17.7251C32.4342 17.0056 32.774 16.0599 32.7454 15.0876C32.7474 14.8507 32.727 14.6142 32.6847 14.3813L28.9977 14.4126ZM56.5193 15.2876C56.3609 14.808 56.0647 14.3893 55.6699 14.0869C55.2751 13.7844 54.8003 13.6125 54.3084 13.5938C53.9761 13.5932 53.6473 13.6626 53.3421 13.7979C53.037 13.9332 52.7621 14.1315 52.5344 14.3804C52.3067 14.6294 52.131 14.9237 52.0182 15.2453C51.9054 15.5669 51.858 15.9089 51.8787 16.2501C51.8714 16.5994 51.9325 16.9467 52.0585 17.2711C52.1844 17.5956 52.3727 17.8906 52.6119 18.1386C52.8512 18.3865 53.1365 18.5823 53.451 18.7142C53.7654 18.8461 54.1025 18.9114 54.442 18.9063C54.8669 18.9087 55.2857 18.8026 55.661 18.5975C56.0362 18.3925 56.3562 18.0948 56.5922 17.7313L55.7115 17.1063C55.58 17.3318 55.3939 17.5183 55.1714 17.6476C54.9489 17.7769 54.6975 17.8445 54.442 17.8438C54.1789 17.8541 53.9189 17.7828 53.6957 17.639C53.4726 17.4952 53.2966 17.2856 53.1907 17.0376L56.6469 15.5688L56.5193 15.2876ZM52.9964 16.1751C52.9841 15.9818 53.0094 15.7879 53.0708 15.6047C53.1322 15.4216 53.2285 15.2529 53.3541 15.1086C53.4797 14.9642 53.632 14.8471 53.8021 14.7641C53.9722 14.6811 54.1567 14.6338 54.3448 14.6251C54.5408 14.6118 54.7362 14.658 54.9068 14.758C55.0774 14.858 55.2157 15.0074 55.3045 15.1876L52.9964 16.1751ZM50.1901 18.7501H51.326V10.9376H50.1901V18.7501ZM48.3315 14.1876H48.289C48.1178 13.9906 47.9081 13.8331 47.6736 13.7254C47.4391 13.6177 47.1852 13.5622 46.9284 13.5626C46.2646 13.5957 45.6386 13.8903 45.1802 14.3854C44.7218 14.8805 44.4661 15.5381 44.4661 16.2219C44.4661 16.9058 44.7218 17.5634 45.1802 18.0585C45.6386 18.5536 46.2646 18.8482 46.9284 18.8813C47.1858 18.8858 47.441 18.8321 47.6761 18.7241C47.9111 18.6162 48.1203 18.4565 48.289 18.2563H48.3254V18.6376C48.3254 19.6563 47.797 20.2001 46.9466 20.2001C46.6634 20.1933 46.3885 20.0999 46.157 19.9318C45.9256 19.7637 45.7479 19.5286 45.6467 19.2563L44.6567 19.6813C44.843 20.1478 45.1606 20.5463 45.5686 20.8259C45.9766 21.1054 46.4564 21.2531 46.9466 21.2501C48.2768 21.2501 49.3762 20.4438 49.3762 18.4813V13.7501H48.3315V14.1876ZM47.0316 17.8626C46.6398 17.827 46.2752 17.6418 46.0095 17.3433C45.7439 17.0448 45.5966 16.6548 45.5966 16.2501C45.5966 15.8454 45.7439 15.4553 46.0095 15.1568C46.2752 14.8584 46.6398 14.6731 47.0316 14.6376C47.2259 14.6478 47.4162 14.698 47.5913 14.7851C47.7665 14.8722 47.9229 14.9945 48.0514 15.1448C48.1799 15.295 48.2778 15.4702 48.3395 15.6601C48.4012 15.8499 48.4253 16.0505 48.4104 16.2501C48.427 16.4505 48.4039 16.6523 48.3425 16.8433C48.2811 17.0343 48.1827 17.2105 48.0533 17.3612C47.9238 17.5119 47.766 17.6341 47.5893 17.7203C47.4127 17.8064 47.2209 17.8548 47.0256 17.8626H47.0316ZM61.8402 10.9376H59.1251V18.7501H60.261V15.7876H61.8463C62.17 15.8115 62.4951 15.7666 62.8012 15.6555C63.1073 15.5445 63.3878 15.3698 63.6254 15.1423C63.863 14.9147 64.0525 14.6393 64.182 14.3331C64.3116 14.0269 64.3784 13.6965 64.3784 13.3626C64.3784 13.0286 64.3116 12.6982 64.182 12.3921C64.0525 12.0859 63.863 11.8104 63.6254 11.5829C63.3878 11.3554 63.1073 11.1806 62.8012 11.0696C62.4951 10.9586 62.17 10.9136 61.8463 10.9376H61.8402ZM61.8402 14.6876H60.2549V12.0251H61.8645C62.2101 12.0251 62.5415 12.1663 62.7858 12.4177C63.0301 12.6691 63.1674 13.0101 63.1674 13.3657C63.1674 13.7213 63.0301 14.0622 62.7858 14.3137C62.5415 14.5651 62.2101 14.7063 61.8645 14.7063L61.8402 14.6876ZM68.8436 13.5626C68.4301 13.5371 68.0184 13.6366 67.6591 13.8486C67.2997 14.0607 67.0084 14.3762 66.821 14.7563L67.8293 15.1876C67.9287 14.999 68.0792 14.8443 68.2625 14.7422C68.4459 14.6401 68.6541 14.5951 68.8619 14.6126C69.0061 14.5952 69.1522 14.6076 69.2916 14.649C69.4311 14.6904 69.5612 14.76 69.6743 14.8536C69.7874 14.9473 69.8812 15.0632 69.9503 15.1946C70.0194 15.326 70.0623 15.4702 70.0767 15.6188V15.7001C69.7119 15.5013 69.305 15.3983 68.8922 15.4001C67.805 15.4001 66.7056 16.0251 66.7056 17.1563C66.7163 17.3975 66.7739 17.6341 66.875 17.852C66.9761 18.0699 67.1187 18.2647 67.2942 18.4249C67.4698 18.5852 67.6748 18.7076 67.8971 18.7849C68.1194 18.8622 68.3545 18.8929 68.5885 18.8751C68.8746 18.8962 69.1609 18.8377 69.4174 18.7058C69.6739 18.5738 69.8911 18.3732 70.0463 18.1251H70.0827V18.7501H71.1761V15.7438C71.1761 14.3751 70.1678 13.5813 68.874 13.5813L68.8436 13.5626ZM68.7039 17.8438C68.3334 17.8438 67.8171 17.6501 67.8171 17.1813C67.8171 16.5563 68.461 16.3501 69.0319 16.3501C69.3928 16.3409 69.7494 16.4316 70.0645 16.6126C70.0265 16.9509 69.871 17.2638 69.6266 17.4935C69.3821 17.7232 69.0652 17.8543 68.7343 17.8626L68.7039 17.8438ZM75.1607 13.7501L73.8608 17.1376H73.8244L72.4759 13.7501H71.2611L73.2838 18.4876L72.1297 21.1188H73.3142L76.4241 13.7501H75.1607ZM64.9502 18.7501H66.086V10.9376H64.9502V18.7501Z" fill="white"/>
<path d="M25.578 8.91879H25.1286V7.66879H25.5112C25.6857 7.47854 25.8175 7.2512 25.8972 7.00281C25.977 6.75443 26.0028 6.49106 25.9728 6.23129V4.37504H28.4025V7.66254H28.8094V8.91254H28.36V8.12504H25.578V8.91879ZM26.4223 6.25004C26.4507 6.75419 26.33 7.25535 26.0761 7.68754H27.8983V4.83754H26.4223V6.25004ZM32.4417 7.63754C32.0866 8.00088 31.6062 8.20484 31.1054 8.20484C30.6047 8.20484 30.1242 8.00088 29.7691 7.63754C29.424 7.26162 29.2317 6.76407 29.2317 6.24692C29.2317 5.72977 29.424 5.23222 29.7691 4.85629C29.9442 4.67488 30.1523 4.5309 30.3817 4.43265C30.611 4.3344 30.857 4.28381 31.1054 4.28381C31.3539 4.28381 31.5998 4.3344 31.8292 4.43265C32.0585 4.5309 32.2667 4.67488 32.4417 4.85629C32.7882 5.2315 32.9815 5.72932 32.9815 6.24692C32.9815 6.76451 32.7882 7.26234 32.4417 7.63754ZM30.1154 7.32504C30.3783 7.59449 30.7343 7.74578 31.1054 7.74578C31.4766 7.74578 31.8325 7.59449 32.0955 7.32504C32.355 7.03068 32.4988 6.64747 32.4988 6.25004C32.4988 5.85261 32.355 5.46941 32.0955 5.17504C31.8325 4.90559 31.4766 4.75431 31.1054 4.75431C30.7343 4.75431 30.3783 4.90559 30.1154 5.17504C29.8559 5.46941 29.7121 5.85261 29.7121 6.25004C29.7121 6.64747 29.8559 7.03068 30.1154 7.32504ZM35.3391 8.20629C35.0883 8.21142 34.8391 8.16428 34.6066 8.0677C34.374 7.97113 34.1628 7.82712 33.9858 7.64435C33.8087 7.46157 33.6694 7.24382 33.5763 7.0042C33.4832 6.76458 33.4382 6.50804 33.444 6.25004C33.4382 5.99205 33.4832 5.73551 33.5763 5.49589C33.6694 5.25627 33.8087 5.03851 33.9858 4.85574C34.1628 4.67297 34.374 4.52896 34.6066 4.43238C34.8391 4.33581 35.0883 4.28866 35.3391 4.29379C35.5932 4.28732 35.8455 4.34019 36.0769 4.44844C36.3084 4.55669 36.513 4.7175 36.6754 4.91879L36.3474 5.24379C36.2274 5.08707 36.0727 4.96218 35.8962 4.87954C35.7198 4.7969 35.5266 4.75893 35.333 4.76879C35.1465 4.76381 34.9611 4.79779 34.7878 4.86869C34.6144 4.9396 34.4569 5.04594 34.3247 5.18129C34.0613 5.47742 33.9153 5.86427 33.9153 6.26567C33.9153 6.66707 34.0613 7.05392 34.3247 7.35004C34.4569 7.48539 34.6144 7.59174 34.7878 7.66264C34.9611 7.73354 35.1465 7.76753 35.333 7.76254C35.5468 7.76058 35.7575 7.70964 35.9497 7.61342C36.142 7.5172 36.311 7.37813 36.4445 7.20629L36.7725 7.54379C36.6072 7.75012 36.3999 7.91654 36.1651 8.03129C35.9059 8.15212 35.6236 8.21191 35.3391 8.20629ZM38.6798 8.12504H38.2121V4.83754H37.1917V4.37504H39.6942V4.83754H38.6798V8.12504ZM42.9134 4.37504L41.5346 7.53754C41.4794 7.72462 41.3691 7.88944 41.219 8.00924C41.0688 8.12903 40.8862 8.19789 40.6964 8.20629C40.5708 8.20465 40.4469 8.17702 40.332 8.12504L40.4534 7.68129C40.5272 7.72552 40.611 7.74922 40.6964 7.75004C40.7857 7.75696 40.8748 7.73512 40.9515 7.68754C41.0247 7.6238 41.0811 7.54212 41.1155 7.45004L41.2491 7.15004L40.0343 4.38129H40.5871L41.486 6.53129L42.3607 4.37504H42.9134ZM43.4419 8.12504V4.37504H46.078V8.12504H45.6103V4.83754H43.9096V8.12504H43.4419ZM46.9102 8.12504V4.37504H47.3779V5.98129H49.2001V4.37504H49.6678V8.12504H49.2001V6.43129H47.3779V8.12504H46.9102ZM53.4884 7.63754C53.1333 8.00088 52.6529 8.20484 52.1521 8.20484C51.6513 8.20484 51.1709 8.00088 50.8158 7.63754C50.4707 7.26162 50.2784 6.76407 50.2784 6.24692C50.2784 5.72977 50.4707 5.23222 50.8158 4.85629C50.9908 4.67488 51.199 4.5309 51.4284 4.43265C51.6577 4.3344 51.9037 4.28381 52.1521 4.28381C52.4005 4.28381 52.6465 4.3344 52.8758 4.43265C53.1052 4.5309 53.3134 4.67488 53.4884 4.85629C53.8349 5.2315 54.0281 5.72932 54.0281 6.24692C54.0281 6.76451 53.8349 7.26234 53.4884 7.63754ZM51.162 7.32504C51.425 7.59449 51.781 7.74578 52.1521 7.74578C52.5232 7.74578 52.8792 7.59449 53.1422 7.32504C53.4017 7.03068 53.5454 6.64747 53.5454 6.25004C53.5454 5.85261 53.4017 5.46941 53.1422 5.17504C52.8792 4.90559 52.5232 4.75431 52.1521 4.75431C51.781 4.75431 51.425 4.90559 51.162 5.17504C50.9025 5.46941 50.7588 5.85261 50.7588 6.25004C50.7588 6.64747 50.9025 7.03068 51.162 7.32504ZM55.9362 8.12504V4.37504H57.2543C57.528 4.36972 57.7932 4.47263 57.9954 4.66254C58.0969 4.75318 58.1778 4.86565 58.2323 4.99202C58.2869 5.11838 58.3138 5.25554 58.3112 5.39379C58.3141 5.56039 58.2674 5.72392 58.1776 5.86254C58.0884 5.99719 57.9642 6.10331 57.8192 6.16879C57.9954 6.22881 58.1499 6.34206 58.2626 6.49379C58.3794 6.64692 58.4416 6.83666 58.4388 7.03129C58.4419 7.17537 58.4141 7.31839 58.3574 7.45018C58.3007 7.58196 58.2165 7.69928 58.1108 7.79379C57.8993 7.99453 57.621 8.10415 57.3333 8.10004L55.9362 8.12504ZM56.4039 5.98129H57.2543C57.3337 5.9847 57.4129 5.97026 57.4864 5.93895C57.5598 5.90765 57.6257 5.86024 57.6795 5.80004C57.7333 5.74987 57.7767 5.68906 57.8071 5.62125C57.8376 5.55344 57.8544 5.48001 57.8567 5.40535C57.859 5.33069 57.8466 5.25632 57.8203 5.18669C57.7941 5.11705 57.7544 5.05358 57.7038 5.00004C57.653 4.94096 57.5903 4.8941 57.5199 4.86278C57.4496 4.83145 57.3734 4.81644 57.2968 4.81879H56.4282L56.4039 5.98129ZM56.4039 7.66254H57.3454C57.4277 7.66538 57.5096 7.64949 57.5852 7.61599C57.6608 7.5825 57.7282 7.53224 57.7828 7.46879C57.8899 7.3545 57.9507 7.20255 57.9528 7.04379C57.9528 6.87803 57.8888 6.71906 57.7749 6.60185C57.661 6.48464 57.5065 6.41879 57.3454 6.41879H56.4222L56.4039 7.66254Z" fill="white"/>
<path fill-rule="evenodd" clip-rule="evenodd" d="M31.1054 4.34631C30.865 4.34631 30.627 4.39527 30.405 4.49035C30.1833 4.58533 29.982 4.72448 29.8128 4.89978C29.4786 5.26403 29.2925 5.74599 29.2925 6.24692C29.2925 6.74778 29.4786 7.22968 29.8126 7.59391C30.1563 7.94518 30.621 8.14234 31.1054 8.14234C31.5899 8.14234 32.0546 7.94516 32.3983 7.59386C32.7337 7.23034 32.9207 6.7482 32.9207 6.24692C32.9207 5.74557 32.7337 5.26337 32.3982 4.89984C32.2289 4.72451 32.0276 4.58534 31.8058 4.49035C31.5839 4.39527 31.3459 4.34631 31.1054 4.34631ZM30.3583 4.37495C30.5951 4.27353 30.849 4.22131 31.1054 4.22131C31.3619 4.22131 31.6158 4.27353 31.8525 4.37495C32.0893 4.47637 32.3042 4.625 32.4848 4.81226L32.4858 4.81323C32.843 5.20005 33.0422 5.7133 33.0422 6.24692C33.0422 6.78054 32.843 7.29377 32.4858 7.6806L32.4846 7.68188C32.1181 8.05686 31.6223 8.26734 31.1054 8.26734C30.5886 8.26734 30.0928 8.05685 29.7263 7.68186L29.725 7.68048C29.3692 7.29296 29.171 6.78003 29.171 6.24692C29.171 5.71381 29.3692 5.2009 29.725 4.81337L29.726 4.81225C29.9067 4.62498 30.1216 4.47637 30.3583 4.37495ZM52.1521 4.34631C51.9117 4.34631 51.6736 4.39527 51.4517 4.49035C51.23 4.58533 51.0287 4.72446 50.8595 4.89975C50.5253 5.264 50.3391 5.74598 50.3391 6.24692C50.3391 6.74778 50.5252 7.22968 50.8593 7.59392C51.203 7.94518 51.6677 8.14234 52.1521 8.14234C52.6366 8.14234 53.1013 7.94514 53.445 7.59382C53.7804 7.2303 53.9674 6.74818 53.9674 6.24692C53.9674 5.74558 53.7803 5.26339 53.4448 4.89986C53.2756 4.72452 53.0742 4.58535 52.8525 4.49035C52.6305 4.39527 52.3925 4.34631 52.1521 4.34631ZM51.405 4.37495C51.6417 4.27353 51.8957 4.22131 52.1521 4.22131C52.4085 4.22131 52.6624 4.27353 52.8992 4.37495C53.1359 4.47637 53.3508 4.625 53.5315 4.81226L53.5324 4.81323C53.8897 5.20006 54.0889 5.7133 54.0889 6.24692C54.0889 6.78054 53.8897 7.29377 53.5324 7.6806L53.5312 7.68188C53.1648 8.05686 52.6689 8.26734 52.1521 8.26734C51.6353 8.26734 51.1395 8.05685 50.773 7.68186L50.7716 7.68048C50.4158 7.29296 50.2176 6.78003 50.2176 6.24692C50.2176 5.71381 50.4159 5.2009 50.7717 4.81337L50.7727 4.81225C50.9534 4.62499 51.1683 4.47637 51.405 4.37495ZM36.0518 4.50534C35.8287 4.401 35.5856 4.35003 35.3406 4.35627L35.3379 4.35634C35.0953 4.35138 34.8543 4.39692 34.6293 4.49034C34.4043 4.58376 34.2 4.72306 34.0288 4.89986C33.8575 5.07666 33.7228 5.2873 33.6327 5.51909C33.5426 5.75088 33.4991 5.99903 33.5047 6.2486L33.5047 6.25149C33.4991 6.50105 33.5426 6.7492 33.6327 6.98099C33.7228 7.21279 33.8575 7.42342 34.0288 7.60022C34.2 7.77702 34.4043 7.91633 34.6293 8.00975C34.8543 8.10316 35.0953 8.14877 35.3379 8.1438L35.3391 8.20629L35.3402 8.1438C35.6156 8.14924 35.8887 8.09144 36.1396 7.9746C36.3495 7.87191 36.5367 7.72643 36.69 7.54719L36.4485 7.29876C36.3169 7.45336 36.1564 7.57952 35.9763 7.66963C35.7761 7.76983 35.5567 7.82291 35.3341 7.82504C35.1396 7.83016 34.9461 7.79468 34.7653 7.72072C34.5844 7.64669 34.4199 7.53566 34.2819 7.39435L34.2798 7.39228C34.0062 7.08464 33.8545 6.68269 33.8545 6.26567C33.8545 5.84865 34.0063 5.44675 34.2799 5.1391L34.2818 5.13694C34.4199 4.99562 34.5844 4.88464 34.7653 4.81062C34.9455 4.73688 35.1384 4.70139 35.3323 4.70625C35.5348 4.69631 35.7368 4.73621 35.9214 4.82265C36.0864 4.8999 36.2332 5.0123 36.3523 5.15214L36.5919 4.91474C36.4417 4.7412 36.2578 4.60167 36.0518 4.50534ZM35.3391 8.2688C35.0805 8.27393 34.8236 8.22524 34.5838 8.12566C34.3437 8.02593 34.1256 7.87722 33.9427 7.68847C33.7599 7.49972 33.6161 7.27485 33.5199 7.0274C33.4239 6.7804 33.3774 6.51599 33.3832 6.25004C33.3774 5.9841 33.4239 5.71969 33.5199 5.47268C33.6161 5.22523 33.7599 5.00036 33.9427 4.81162C34.1256 4.62287 34.3437 4.47415 34.5838 4.37442C34.8236 4.27487 35.0804 4.22618 35.3389 4.23128C35.6018 4.22479 35.8627 4.27958 36.1021 4.39154C36.3419 4.5037 36.5539 4.67032 36.7221 4.87888L36.7581 4.92355L36.3412 5.3367L36.2996 5.28247C36.1857 5.13358 36.0387 5.01493 35.8711 4.93643C35.7034 4.85792 35.52 4.82185 35.336 4.83122L35.3314 4.83145C35.1532 4.82668 34.9759 4.85899 34.8102 4.92677C34.645 4.99437 34.4947 5.09567 34.3685 5.22457C34.116 5.50903 33.976 5.88038 33.976 6.26567C33.976 6.65096 34.116 7.02231 34.3685 7.30677C34.4947 7.43567 34.645 7.53697 34.8102 7.60456C34.9759 7.67234 35.1532 7.70483 35.3314 7.70006L35.3324 7.70005C35.5372 7.69816 35.739 7.64937 35.9232 7.55722C36.1073 7.46506 36.2692 7.33185 36.3971 7.16727L36.4395 7.11271L36.8545 7.53974L36.8194 7.58355C36.6484 7.79694 36.434 7.96907 36.1912 8.08775L36.1902 8.08824C35.9231 8.21273 35.6323 8.27441 35.3391 8.2688ZM57.9544 4.7087C57.7638 4.52957 57.5136 4.43252 57.2555 4.43753L57.2543 4.43754H55.997V8.06145L57.3322 8.03755L57.3341 8.03755C57.6063 8.04143 57.8695 7.93774 58.0696 7.74785L58.0709 7.74659C58.1699 7.6581 58.2488 7.54827 58.3018 7.42488C58.3549 7.30149 58.3809 7.16758 58.378 7.03268L58.378 7.03036C58.3806 6.85003 58.323 6.67425 58.2148 6.53238L58.2144 6.53174C58.1091 6.39 57.9647 6.28419 57.8001 6.22813L57.6499 6.17698L57.7948 6.11156C57.9293 6.05084 58.0444 5.95246 58.1272 5.82764C58.2101 5.69965 58.2531 5.54869 58.2505 5.39489V5.39257C58.2529 5.26347 58.2278 5.13539 58.1768 5.0174C58.1259 4.89941 58.0503 4.79438 57.9555 4.70975L57.9544 4.7087ZM58.0358 4.61588C57.8224 4.41563 57.5425 4.30708 57.2538 4.31254H55.8755V8.18864L57.3324 8.16254L57.3334 8.16255C57.636 8.16662 57.9287 8.05133 58.1513 7.84036C58.2634 7.73993 58.3528 7.61537 58.4129 7.47547C58.4731 7.33565 58.5026 7.18395 58.4995 7.03108L58.4995 7.03223L58.4388 7.03129L58.4995 7.02991L58.4995 7.03108C58.5023 6.82267 58.4356 6.61954 58.3106 6.45551C58.2177 6.33055 58.0982 6.2301 57.962 6.16142C58.0669 6.09351 58.1575 6.0039 58.2278 5.89774L58.2281 5.89722C58.3246 5.74834 58.3748 5.57276 58.372 5.39384L58.3719 5.39502L58.3112 5.39379L58.3719 5.39269L58.372 5.39384C58.3746 5.24683 58.3459 5.10101 58.2878 4.96663C58.2298 4.83215 58.1437 4.71243 58.0358 4.61588ZM25.9121 4.31254H28.4632V7.60004H28.8702V8.97504H28.2992V8.18754H25.6388V8.98129H25.0678V7.60629H25.4847C25.6444 7.42676 25.7653 7.21443 25.8396 6.9832C25.9165 6.74351 25.9414 6.48935 25.9125 6.23866L25.9121 6.23499V4.31254ZM26.0336 4.43754V6.22763C26.0639 6.49528 26.0371 6.76654 25.9549 7.02242C25.8724 7.27949 25.736 7.51478 25.5554 7.71169L25.5374 7.73129H25.1893V8.85629H25.5173V8.06254H28.4207V8.85004H28.7487V7.72504H28.3417V4.43754H26.0336ZM37.1309 4.31254H39.7549V4.90004H38.7405V8.18754H38.1514V4.90004H37.1309V4.31254ZM37.2524 4.43754V4.77504H38.2728V8.06254H38.6191V4.77504H39.6334V4.43754H37.2524ZM42.3202 4.31254H43.0073L41.5916 7.55956C41.5324 7.75743 41.4153 7.93173 41.2562 8.05863C41.0961 8.18636 40.9014 8.25978 40.699 8.26873L40.6956 8.26888C40.5619 8.26714 40.4299 8.23761 40.3075 8.18226L40.2592 8.1604L40.4162 7.58668L40.484 7.62728C40.5487 7.66605 40.6221 7.68682 40.697 7.68755L40.701 7.68758C40.7761 7.69341 40.8511 7.67567 40.916 7.63655C40.9796 7.58008 41.0286 7.50832 41.0588 7.42761L41.0602 7.42395L41.1824 7.14985L39.9403 4.31879H40.6271L41.4852 6.37112L42.3202 4.31254ZM42.4012 4.43754L41.4869 6.69146L40.5471 4.44379H40.1284L41.3159 7.15024L41.1715 7.47436C41.1334 7.57547 41.0712 7.66516 40.9908 7.73525L40.987 7.73848L40.9829 7.74106C40.896 7.79498 40.795 7.81993 40.6938 7.81252C40.6244 7.81159 40.556 7.79722 40.4921 7.77039L40.4052 8.0881C40.4981 8.12341 40.5962 8.14228 40.6955 8.14377C40.8721 8.13559 41.042 8.07135 41.1818 7.95985C41.322 7.84798 41.425 7.69408 41.4765 7.51939L41.4776 7.51559L42.8196 4.43754H42.4012ZM43.3811 4.31254H46.1388V8.18754H45.5496V4.90004H43.9703V8.18754H43.3811V4.31254ZM43.5026 4.43754V8.06254H43.8488V4.77504H45.6711V8.06254H46.0173V4.43754H43.5026ZM46.8494 4.31254H47.4386V5.91879H49.1394V4.31254H49.7285V8.18754H49.1394V6.49379H47.4386V8.18754H46.8494V4.31254ZM46.9709 4.43754V8.06254H47.3171V6.36879H49.2608V8.06254H49.6071V4.43754H49.2608V6.04379H47.3171V4.43754H46.9709ZM30.0725 5.13076C30.3469 4.84964 30.7183 4.69181 31.1054 4.69181C31.4926 4.69181 31.864 4.84964 32.1384 5.13076L32.1406 5.133C32.4102 5.43886 32.5595 5.83709 32.5595 6.25004C32.5595 6.663 32.4101 7.06117 32.1405 7.36703L32.1384 7.36939C31.8641 7.6505 31.4926 7.80828 31.1054 7.80828C30.7183 7.80828 30.3469 7.65045 30.0725 7.36933L30.1154 7.32504L30.0704 7.36703C29.8007 7.06117 29.6514 6.663 29.6514 6.25004C29.6514 5.83709 29.8007 5.43891 30.0704 5.13305L30.0725 5.13076ZM30.1593 7.28187C30.4108 7.53896 30.7509 7.68328 31.1054 7.68328C31.46 7.68328 31.8001 7.53896 32.0516 7.28187C32.3003 6.99916 32.438 6.63142 32.438 6.25004C32.438 5.86867 32.3003 5.50092 32.0516 5.21821C31.8001 4.96112 31.46 4.81681 31.1054 4.81681C30.7509 4.81681 30.4108 4.96112 30.1593 5.21821C29.9106 5.50092 29.7728 5.86867 29.7728 6.25004C29.7728 6.63142 29.9106 6.99916 30.1593 7.28187ZM51.1192 5.13076C51.3935 4.84964 51.7649 4.69181 52.1521 4.69181C52.5393 4.69181 52.9107 4.84964 53.185 5.13076L53.1872 5.133C53.4569 5.43886 53.6062 5.83709 53.6062 6.25004C53.6062 6.663 53.4568 7.06117 53.1872 7.36703L53.1851 7.36939C52.9107 7.6505 52.5393 7.80828 52.1521 7.80828C51.7649 7.80828 51.3935 7.65045 51.1192 7.36933L51.162 7.32504L51.117 7.36703C50.8474 7.06117 50.698 6.663 50.698 6.25004C50.698 5.83709 50.8474 5.43891 51.117 5.13305L51.1192 5.13076ZM51.206 7.28188C51.4575 7.53896 51.7976 7.68328 52.1521 7.68328C52.5066 7.68328 52.8467 7.53896 53.0982 7.28188C53.3469 6.99917 53.4847 6.63142 53.4847 6.25004C53.4847 5.86866 53.3469 5.50092 53.0982 5.21821C52.8467 4.96112 52.5066 4.81681 52.1521 4.81681C51.7976 4.81681 51.4575 4.96112 51.206 5.21821C50.9573 5.50092 50.8195 5.86866 50.8195 6.25004C50.8195 6.63142 50.9573 6.99917 51.206 7.28188ZM57.296 4.75629C57.3812 4.75381 57.4658 4.77058 57.5441 4.80542C57.6221 4.84019 57.6919 4.89212 57.7484 4.95756C57.8042 5.01688 57.8479 5.08709 57.8769 5.16407C57.9062 5.24153 57.9199 5.32425 57.9174 5.4073C57.9149 5.49035 57.8961 5.57203 57.8623 5.64746C57.8288 5.72203 57.7812 5.78899 57.7223 5.84444C57.6629 5.91034 57.5903 5.96227 57.5096 5.99669C57.4284 6.0313 57.3409 6.04737 57.2531 6.04379H56.3419L56.3688 4.75629H57.296ZM57.4958 4.92013C57.4337 4.89245 57.3663 4.87918 57.2987 4.88126L57.2968 4.88129H56.4877L56.466 5.91879H57.2569C57.3274 5.92183 57.3978 5.90904 57.4631 5.88121C57.5284 5.85339 57.587 5.81125 57.6348 5.75774L57.6367 5.75565L57.6387 5.75374C57.6864 5.7092 57.725 5.65523 57.752 5.59504C57.779 5.53485 57.794 5.46967 57.796 5.4034C57.798 5.33713 57.787 5.27112 57.7637 5.20931C57.7404 5.14749 57.7052 5.09115 57.6603 5.04363L57.6582 5.04149C57.6134 4.98928 57.558 4.94782 57.4958 4.92013ZM26.3616 4.77504H27.9591V7.75004H25.9684L26.0241 7.65521C26.2716 7.23383 26.3893 6.7452 26.3617 6.25365L26.3615 6.25004L26.3616 4.77504ZM26.4831 4.90004V6.24825C26.5097 6.72792 26.4047 7.20488 26.1811 7.62504H27.8376V4.90004H26.4831ZM56.3623 6.35629H57.3454C57.5226 6.35629 57.6926 6.42873 57.8179 6.55766C57.9432 6.68659 58.0136 6.86146 58.0136 7.04379L58.0136 7.04467C58.0112 7.21887 57.9446 7.38562 57.8274 7.51124C57.7671 7.58109 57.6926 7.63645 57.6092 7.6734C57.5257 7.71039 57.4353 7.72802 57.3444 7.72504H56.3423L56.3623 6.35629ZM56.482 6.48129L56.4656 7.60004H57.3475C57.4208 7.60257 57.4938 7.58844 57.5611 7.55859C57.6285 7.52874 57.6887 7.48394 57.7373 7.42739L57.739 7.42537C57.8353 7.32261 57.89 7.18606 57.8921 7.04334C57.892 6.89432 57.8344 6.75143 57.732 6.64605C57.6295 6.54056 57.4904 6.48129 57.3454 6.48129H56.482Z" fill="white"/>
<path d="M6.34128 4.71245C6.1433 4.95689 6.04337 5.26982 6.06187 5.58745V19.4125C6.04337 19.7301 6.1433 20.043 6.34128 20.2875L6.38379 20.3312L13.9096 12.5937V12.4125L6.38379 4.6687L6.34128 4.71245Z" fill="url(#paint0_linear)"/>
<path d="M16.3999 15.175L13.9095 12.5937V12.4125L16.3999 9.82495L16.4546 9.8562L19.437 11.6C20.2873 12.0937 20.2873 12.9062 19.437 13.4062L16.4667 15.1437L16.3999 15.175Z" fill="url(#paint1_linear)"/>
<path d="M16.4729 15.1375L13.9096 12.5L6.34131 20.2875C6.51464 20.4443 6.73575 20.5338 6.96644 20.5407C7.19713 20.5475 7.42289 20.4712 7.60472 20.325L16.4789 15.1375" fill="url(#paint2_linear)"/>
<path d="M16.4728 9.86247L7.59861 4.67497C7.41679 4.52873 7.19102 4.45244 6.96034 4.45929C6.72965 4.46613 6.50854 4.55569 6.33521 4.71247L13.9096 12.5L16.4728 9.86247Z" fill="url(#paint3_linear)"/>
<path opacity="0.2" d="M16.4 15.0813L7.59864 20.2375C7.42328 20.3725 7.21019 20.4454 6.99123 20.4454C6.77227 20.4454 6.55919 20.3725 6.38383 20.2375L6.34131 20.2813L6.38383 20.325C6.55879 20.4609 6.77203 20.5344 6.99123 20.5344C7.21044 20.5344 7.42367 20.4609 7.59864 20.325L16.4729 15.1375L16.4 15.0813Z" fill="black"/>
<path opacity="0.12" d="M6.34128 20.2C6.1433 19.9556 6.04337 19.6426 6.06187 19.325V19.4187C6.04337 19.7364 6.1433 20.0493 6.34128 20.2938L6.38379 20.25L6.34128 20.2ZM19.437 13.3125L16.3999 15.0813L16.4546 15.1375L19.437 13.4C19.6062 13.3182 19.7515 13.1919 19.8581 13.0339C19.9648 12.8759 20.029 12.6917 20.0444 12.5C20.0102 12.6742 19.9377 12.838 19.8324 12.9789C19.7271 13.1197 19.5918 13.2338 19.437 13.3125Z" fill="black"/>
<path opacity="0.25" d="M7.59866 4.76228L19.437 11.6873C19.5919 11.7659 19.7272 11.8801 19.8325 12.0209C19.9378 12.1618 20.0103 12.3256 20.0444 12.4998C20.0291 12.308 19.9648 12.1239 19.8582 11.9659C19.7515 11.8079 19.6063 11.6816 19.437 11.5998L7.59866 4.67478C6.74829 4.18103 6.05585 4.59353 6.05585 5.59353V5.68728C6.07407 4.68103 6.75437 4.26853 7.59866 4.76228Z" fill="white"/>
<defs>
<linearGradient id="paint0_linear" x1="13.2414" y1="5.4437" x2="2.7582" y2="15.6318" gradientUnits="userSpaceOnUse">
<stop stop-color="#00A0FF"/>
<stop offset="0.01" stop-color="#00A1FF"/>
<stop offset="0.26" stop-color="#00BEFF"/>
<stop offset="0.51" stop-color="#00D2FF"/>
<stop offset="0.76" stop-color="#00DFFF"/>
<stop offset="1" stop-color="#00E3FF"/>
</linearGradient>
<linearGradient id="paint1_linear" x1="20.5485" y1="12.5" x2="5.85532" y2="12.5" gradientUnits="userSpaceOnUse">
<stop stop-color="#FFE000"/>
<stop offset="0.41" stop-color="#FFBD00"/>
<stop offset="0.78" stop-color="#FFA500"/>
<stop offset="1" stop-color="#FF9C00"/>
</linearGradient>
<linearGradient id="paint2_linear" x1="15.0819" y1="13.9375" x2="0.862874" y2="27.7502" gradientUnits="userSpaceOnUse">
<stop stop-color="#FF3A44"/>
<stop offset="1" stop-color="#C31162"/>
</linearGradient>
<linearGradient id="paint3_linear" x1="4.43402" y1="0.112469" x2="10.7814" y2="6.28121" gradientUnits="userSpaceOnUse">
<stop stop-color="#32A071"/>
<stop offset="0.07" stop-color="#2DA771"/>
<stop offset="0.48" stop-color="#15CF74"/>
<stop offset="0.8" stop-color="#06E775"/>
<stop offset="1" stop-color="#00F076"/>
</linearGradient>
</defs>
</svg>
